<svg xmlns="http://www.w3.org/2000/svg"
    viewBox="-39.261537431596636 161.83937595126864 651.7815229122955 230.4904030464791">
    <g transform="rotate(0 113.58328611356718 277.0845774745082)"><svg xmlns="http://www.w3.org/2000/svg" id="Layer_1"
            dataName="Layer 1" viewBox="91.38999938964844 276.8399963378906 817.219970703125 446.3199768066406"
            height="90.4904030464791" width="165.68964709032764" y="231.83937595126864" x="30.738462568403364"
            preserveAspectRatio="xMinYMin" style="overflow: visible;">
            <polygon class="cls-1"
                points="281.13 407.73 281.13 493.11 529.23 592.28 339.51 637.77 91.39 538.6 91.39 623.99 339.51 723.16 529.26 677.65 529.26 592.28 719 546.78 719 461.39 529.24 506.9 281.13 407.73"
                style="fill: #4b5871; fill-opacity: 1;"></polygon>
            <polygon class="cls-1"
                points="718.86 376.01 470.74 276.84 470.74 362.23 718.86 461.4 908.61 415.89 908.61 330.51 718.86 376.01"
                style="fill: #4b5871; fill-opacity: 1;"></polygon>
        </svg></g>
    <g transform="rotate(0 385.75999097386284 281.7228116931042)"><svg xmlns="http://www.w3.org/2000/svg"
            y="253.4728116931042" viewBox="5.059999942779541 18.239999771118164 313.5199890136719 56.5"
            x="228.99999646702688" height="56.5" width="313.5199890136719" style="overflow: visible;">
            <g fill="#4b5871" fill-opacity="1" style="">
                <path
                    d="M26.84 74.74L26.84 74.74L17.52 74.74Q11.57 74.74 8.32 71.45Q5.06 68.15 5.06 62.28L5.06 62.28L5.06 35.52Q5.06 29.58 8.32 26.32Q11.57 23.07 17.52 23.07L17.52 23.07L26.84 23.07Q32.71 23.07 36.00 26.32Q39.30 29.58 39.30 35.52L39.30 35.52L39.30 39.38Q39.30 40.83 37.85 40.83L37.85 40.83L32.79 40.83Q31.42 40.83 31.42 39.38L31.42 39.38L31.42 35.84Q31.42 29.90 25.64 29.90L25.64 29.90L18.65 29.90Q12.86 29.90 12.86 35.84L12.86 35.84L12.86 61.96Q12.86 67.91 18.65 67.91L18.65 67.91L25.64 67.91Q31.42 67.91 31.42 61.96L31.42 61.96L31.42 58.43Q31.42 56.98 32.79 56.98L32.79 56.98L37.85 56.98Q39.30 56.98 39.30 58.43L39.30 58.43L39.30 62.28Q39.30 68.15 36.00 71.45Q32.71 74.74 26.84 74.74ZM55.29 74.74L55.29 74.74L50.23 74.74Q48.86 74.74 48.86 73.38L48.86 73.38L48.86 19.61Q48.86 18.24 50.23 18.24L50.23 18.24L55.29 18.24Q56.66 18.24 56.66 19.61L56.66 19.61L56.66 73.38Q56.66 74.74 55.29 74.74ZM96.20 74.74L96.20 74.74L78.84 74.74Q72.89 74.74 69.64 71.45Q66.38 68.15 66.38 62.28L66.38 62.28L66.38 46.21Q66.38 40.26 69.64 37.01Q72.89 33.75 78.84 33.75L78.84 33.75L85.43 33.75Q91.38 33.75 94.67 37.01Q97.97 40.26 97.97 46.21L97.97 46.21L97.97 56.42Q97.97 57.86 96.52 57.86L96.52 57.86L74.98 57.86Q74.10 57.86 74.10 58.67L74.10 58.67L74.10 62.12Q74.10 67.99 79.97 67.99L79.97 67.99L96.20 67.99Q97.65 67.99 97.65 69.44L97.65 69.44L97.65 73.46Q97.65 74.74 96.20 74.74ZM74.98 52.40L74.98 52.40L89.37 52.40Q90.17 52.40 90.17 51.60L90.17 51.60L90.17 46.45Q90.17 43.40 88.81 41.99Q87.44 40.59 84.39 40.59L84.39 40.59L79.97 40.59Q76.91 40.59 75.55 41.99Q74.18 43.40 74.18 46.45L74.18 46.45L74.18 51.60Q74.18 52.40 74.98 52.40ZM121.60 74.74L121.60 74.74L118.46 74.74Q112.51 74.74 109.26 71.45Q106.00 68.15 106.00 62.28L106.00 62.28L106.00 46.21Q106.00 40.26 109.26 37.01Q112.51 33.75 118.46 33.75L118.46 33.75L136.46 33.75Q137.91 33.75 137.91 35.12L137.91 35.12L137.91 73.38Q137.91 74.74 136.46 74.74L136.46 74.74L131.40 74.74Q130.03 74.74 130.03 73.38L130.03 73.38L130.03 70.48L129.71 70.48Q127.78 74.74 121.60 74.74ZM130.03 61.08L130.03 61.08L130.03 41.39Q130.03 40.59 129.15 40.59L129.15 40.59L119.59 40.59Q113.80 40.59 113.80 46.53L113.80 46.53L113.80 61.96Q113.80 67.91 119.59 67.91L119.59 67.91L123.44 67.91Q130.03 67.91 130.03 61.08ZM154.39 74.74L154.39 74.74L149.32 74.74Q147.96 74.74 147.96 73.38L147.96 73.38L147.96 35.12Q147.96 33.75 149.32 33.75L149.32 33.75L154.39 33.75Q155.75 33.75 155.75 35.12L155.75 35.12L155.75 38.17L156.07 38.17Q156.88 36.17 159.17 34.96Q161.46 33.75 164.27 33.75L164.27 33.75L167.24 33.75Q168.61 33.75 168.61 35.12L168.61 35.12L168.61 39.30Q168.61 40.83 167.24 40.59L167.24 40.59L162.42 40.59Q155.75 40.59 155.75 47.90L155.75 47.90L155.75 73.38Q155.75 74.74 154.39 74.74ZM189.51 74.74L189.51 74.74L174.72 74.74Q173.35 74.74 173.35 73.38L173.35 73.38L173.35 69.44Q173.35 68.15 174.72 68.15L174.72 68.15L188.22 68.15Q193.44 68.15 193.44 64.53L193.44 64.53L193.44 63.57Q193.44 60.36 189.67 58.67L189.67 58.67L180.91 54.49Q176.81 52.56 174.96 50.23Q173.11 47.90 173.11 44.12L173.11 44.12Q173.11 33.75 184.60 33.75L184.60 33.75L197.94 33.75Q199.23 33.75 199.23 35.12L199.23 35.12L199.23 39.06Q199.23 40.42 197.94 40.42L197.94 40.42L186.21 40.42Q183.80 40.42 182.51 41.27Q181.23 42.11 181.23 43.48L181.23 43.48L181.23 44.36Q181.23 46.93 185.33 48.86L185.33 48.86L194.17 53.36Q198.35 55.21 199.91 57.74Q201.48 60.28 201.48 64.29L201.48 64.29Q201.48 74.74 189.51 74.74ZM211.04 40.59L211.04 40.59L207.19 40.59Q206.38 40.59 206.10 40.30Q205.82 40.02 205.82 39.30L205.82 39.30L205.82 35.12Q205.82 33.75 207.19 33.75L207.19 33.75L211.04 33.75Q211.85 33.75 211.85 32.95L211.85 32.95L211.85 25.72Q211.85 24.35 213.29 24.35L213.29 24.35L218.36 24.35Q219.72 24.35 219.72 25.72L219.72 25.72L219.72 32.95Q219.72 33.75 220.61 33.75L220.61 33.75L228.08 33.75Q229.53 33.75 229.53 35.12L229.53 35.12L229.53 39.30Q229.53 40.59 228.08 40.59L228.08 40.59L220.61 40.59Q219.72 40.59 219.72 41.39L219.72 41.39L219.72 62.04Q219.72 67.91 225.75 67.91L225.75 67.91L228.89 67.91Q230.33 67.91 230.33 69.28L230.33 69.28L230.33 73.46Q230.33 74.74 228.89 74.74L228.89 74.74L224.55 74.74Q218.60 74.74 215.22 71.53Q211.85 68.31 211.85 62.45L211.85 62.45L211.85 41.39Q211.85 40.59 211.04 40.59ZM252.84 74.74L252.84 74.74L249.70 74.74Q243.75 74.74 240.50 71.45Q237.24 68.15 237.24 62.28L237.24 62.28L237.24 46.21Q237.24 40.26 240.50 37.01Q243.75 33.75 249.70 33.75L249.70 33.75L267.70 33.75Q269.15 33.75 269.15 35.12L269.15 35.12L269.15 73.38Q269.15 74.74 267.70 74.74L267.70 74.74L262.64 74.74Q261.27 74.74 261.27 73.38L261.27 73.38L261.27 70.48L260.95 70.48Q259.02 74.74 252.84 74.74ZM261.27 61.08L261.27 61.08L261.27 41.39Q261.27 40.59 260.39 40.59L260.39 40.59L250.83 40.59Q245.04 40.59 245.04 46.53L245.04 46.53L245.04 61.96Q245.04 67.91 250.83 67.91L250.83 67.91L254.68 67.91Q261.27 67.91 261.27 61.08ZM279.60 26.92L279.60 26.92L279.60 19.61Q279.60 18.32 280.88 18.32L280.88 18.32L286.11 18.32Q287.39 18.32 287.39 19.61L287.39 19.61L287.39 26.92Q287.39 28.29 286.11 28.29L286.11 28.29L280.88 28.29Q279.60 28.29 279.60 26.92ZM279.60 73.38L279.60 73.38L279.60 35.12Q279.60 33.75 280.88 33.75L280.88 33.75L286.03 33.75Q287.39 33.75 287.39 35.12L287.39 35.12L287.39 73.38Q287.39 74.18 287.11 74.46Q286.83 74.74 286.11 74.74L286.11 74.74L280.96 74.74Q279.60 74.74 279.60 73.38ZM304.35 74.74L304.35 74.74L299.29 74.74Q297.92 74.74 297.92 73.38L297.92 73.38L297.92 35.12Q297.92 33.75 299.29 33.75L299.29 33.75L304.35 33.75Q305.72 33.75 305.72 35.12L305.72 35.12L305.72 38.17L306.04 38.17Q306.84 36.17 309.13 34.96Q311.42 33.75 314.24 33.75L314.24 33.75L317.21 33.75Q318.58 33.75 318.58 35.12L318.58 35.12L318.58 39.30Q318.58 40.83 317.21 40.59L317.21 40.59L312.39 40.59Q305.72 40.59 305.72 47.90L305.72 47.90L305.72 73.38Q305.72 74.74 304.35 74.74Z"
                    transform="translate(0, 0)"></path>
            </g>
        </svg></g>
</svg>